<?xml version="1.0" encoding="utf-8"?>
<!-- Generator: Adobe Illustrator 21.0.0, SVG Export Plug-In . SVG Version: 6.00 Build 0)  -->
<svg version="1.1" id="Layer_1" xmlns="http://www.w3.org/2000/svg" xmlns:xlink="http://www.w3.org/1999/xlink" x="0px" y="0px"
	 viewBox="0 0 200 200" style="enable-background:new 0 0 200 200;" xml:space="preserve">
<style type="text/css">
	.st0{fill:#58595B;}
	.st1{fill:#6A8AA7;}
</style>
<path class="st0" d="M109,0H13.4C6,0,0,6.2,0,13.8v46.8l87.8-45.9l-4.3,19.1L21.6,70.1L68.7,99l-3.4,15L0,79.3v106.9
	c0,7.6,6,13.8,13.4,13.8h50.3L109,0z"/>
<path class="st1" d="M134.3,26.1L200,60.6V13.8C200,6.2,194,0,186.6,0h-64.3L77.1,200h60.1l-9.6-45.4c-0.3-1.2-0.4-2.4-0.4-3.7
	c0-7.9,5.4-15.1,13.2-16.9l59.6-13.4V79.3l-88.4,47l4.4-19.5l62.4-36.8l-47.5-28.9L134.3,26.1z"/>
<path class="st1" d="M138.4,153.3c0,0.7,0.1,1.4,0.2,2.2l8.3,39l48.9-62.4l-49.5,11.1C141.7,144.2,138.4,148.6,138.4,153.3z"/>
</svg>
